<svg width="156" height="24" viewBox="0 0 156 24" fill="none" xmlns="http://www.w3.org/2000/svg">
<g clip-path="url(#clip0_1_292)">
<g clip-path="url(#clip1_1_292)">
<path d="M23.04 0H0.96C0.429 0 0 0.429 0 0.96V23.04C0 23.571 0.429 24 0.96 24H23.04C23.571 24 24 23.571 24 23.04V0.96C24 0.429 23.571 0 23.04 0ZM20.268 7.005H18.351C16.848 7.005 16.557 7.719 16.557 8.769V11.082H20.145L19.677 14.703H16.557V24H12.816V14.706H9.687V11.082H12.816V8.412C12.816 5.313 14.709 3.624 17.475 3.624C18.801 3.624 19.938 3.723 20.271 3.768V7.005H20.268Z" fill="#335BF5"/>
</g>
<g clip-path="url(#clip2_1_292)">
<path d="M56.0018 5.84744C52.5968 5.84744 49.8488 8.59544 49.8488 12.0004C49.8488 15.4054 52.5968 18.1534 56.0018 18.1534C59.4068 18.1534 62.1548 15.4054 62.1548 12.0004C62.1548 8.59544 59.4068 5.84744 56.0018 5.84744ZM56.0018 15.9994C53.7998 15.9994 52.0028 14.2024 52.0028 12.0004C52.0028 9.79844 53.7998 8.00144 56.0018 8.00144C58.2038 8.00144 60.0008 9.79844 60.0008 12.0004C60.0008 14.2024 58.2038 15.9994 56.0018 15.9994ZM62.4068 4.16144C61.6118 4.16144 60.9698 4.80344 60.9698 5.59844C60.9698 6.39344 61.6118 7.03544 62.4068 7.03544C63.2018 7.03544 63.8438 6.39644 63.8438 5.59844C63.844 5.40966 63.807 5.22269 63.7349 5.04824C63.6627 4.87379 63.5569 4.71528 63.4234 4.5818C63.2899 4.44831 63.1314 4.34247 62.957 4.27034C62.7825 4.19821 62.5955 4.1612 62.4068 4.16144ZM67.9958 12.0004C67.9958 10.3444 68.0108 8.70344 67.9178 7.05044C67.8248 5.13044 67.3868 3.42644 65.9828 2.02244C64.5758 0.615437 62.8748 0.180437 60.9548 0.0874372C59.2988 -0.00556279 57.6578 0.00943725 56.0048 0.00943725C54.3488 0.00943725 52.7078 -0.00556279 51.0548 0.0874372C49.1348 0.180437 47.4308 0.618437 46.0268 2.02244C44.6198 3.42944 44.1848 5.13044 44.0918 7.05044C43.9988 8.70644 44.0138 10.3474 44.0138 12.0004C44.0138 13.6534 43.9988 15.2974 44.0918 16.9504C44.1848 18.8704 44.6228 20.5744 46.0268 21.9784C47.4338 23.3854 49.1348 23.8204 51.0548 23.9134C52.7108 24.0064 54.3518 23.9914 56.0048 23.9914C57.6608 23.9914 59.3018 24.0064 60.9548 23.9134C62.8748 23.8204 64.5788 23.3824 65.9828 21.9784C67.3898 20.5714 67.8248 18.8704 67.9178 16.9504C68.0138 15.2974 67.9958 13.6564 67.9958 12.0004ZM65.3558 19.0744C65.1368 19.6204 64.8728 20.0284 64.4498 20.4484C64.0268 20.8714 63.6218 21.1354 63.0758 21.3544C61.4978 21.9814 57.7508 21.8404 56.0018 21.8404C54.2528 21.8404 50.5028 21.9814 48.9248 21.3574C48.3788 21.1384 47.9708 20.8744 47.5508 20.4514C47.1278 20.0284 46.8638 19.6234 46.6448 19.0774C46.0208 17.4964 46.1618 13.7494 46.1618 12.0004C46.1618 10.2514 46.0208 6.50144 46.6448 4.92344C46.8638 4.37744 47.1278 3.96944 47.5508 3.54944C47.9738 3.12944 48.3788 2.86244 48.9248 2.64344C50.5028 2.01944 54.2528 2.16044 56.0018 2.16044C57.7508 2.16044 61.5008 2.01944 63.0788 2.64344C63.6248 2.86244 64.0328 3.12644 64.4528 3.54944C64.8758 3.97244 65.1398 4.37744 65.3588 4.92344C65.9828 6.50144 65.8418 10.2514 65.8418 12.0004C65.8418 13.7494 65.9828 17.4964 65.3558 19.0744Z" fill="#E61F5A"/>
</g>
<g clip-path="url(#clip3_1_292)">
<path d="M112 4.46548C111.119 4.85141 110.159 5.12917 109.171 5.23735C110.197 4.61879 110.965 3.64156 111.332 2.48901C110.369 3.07022 109.314 3.47778 108.215 3.6936C107.755 3.19488 107.199 2.79758 106.581 2.52645C105.964 2.25532 105.298 2.11618 104.625 2.11769C101.902 2.11769 99.7123 4.3573 99.7123 7.10564C99.7123 7.49158 99.7584 7.87752 99.8333 8.24884C95.7565 8.03248 92.1205 6.05601 89.7032 3.0299C89.2627 3.79335 89.0319 4.66261 89.0348 5.54727C89.0348 7.27814 89.902 8.80435 91.2244 9.70195C90.4451 9.6708 89.684 9.45342 89.0031 9.06749V9.12889C89.0031 11.5527 90.6914 13.5613 92.9416 14.0233C92.5191 14.1347 92.0845 14.1916 91.648 14.1929C91.3282 14.1929 91.0256 14.1607 90.7202 14.1168C91.3426 16.0933 93.1548 17.5289 95.3128 17.5757C93.6244 18.9177 91.5097 19.7071 89.2134 19.7071C88.8014 19.7071 88.4211 19.6925 88.0264 19.6457C90.2045 21.0637 92.7889 21.8824 95.5721 21.8824C104.607 21.8824 109.551 14.2864 109.551 7.69332C109.551 7.47696 109.551 7.2606 109.537 7.04424C110.494 6.33377 111.332 5.45371 112 4.46548Z" fill="#21A6DF"/>
</g>
<g clip-path="url(#clip4_1_292)">
<path d="M155.47 5.93179C155.333 5.39882 155.066 4.91289 154.695 4.52261C154.324 4.13234 153.862 3.85141 153.355 3.70796C151.488 3.17676 143.988 3.17676 143.988 3.17676C143.988 3.17676 136.487 3.17676 134.621 3.70796C134.114 3.85141 133.652 4.13234 133.281 4.52261C132.909 4.91289 132.642 5.39882 132.506 5.93179C132.157 7.93347 131.988 9.96513 132.001 12.0001C131.988 14.035 132.157 16.0666 132.506 18.0683C132.642 18.6013 132.909 19.0872 133.281 19.4775C133.652 19.8678 134.114 20.1487 134.621 20.2921C136.487 20.8233 143.988 20.8233 143.988 20.8233C143.988 20.8233 151.488 20.8233 153.355 20.2921C153.862 20.1487 154.324 19.8678 154.695 19.4775C155.066 19.0872 155.333 18.6013 155.47 18.0683C155.818 16.0666 155.988 14.035 155.975 12.0001C155.988 9.96513 155.818 7.93347 155.47 5.93179ZM141.59 15.7815V8.21864L147.815 12.0001L141.59 15.7815Z" fill="#E42F08"/>
</g>
</g>
<defs>
<clipPath id="clip0_1_292">
<rect width="156" height="24" fill="white"/>
</clipPath>
<clipPath id="clip1_1_292">
<rect width="24" height="24" fill="white"/>
</clipPath>
<clipPath id="clip2_1_292">
<rect width="24" height="24" fill="white" transform="translate(44)"/>
</clipPath>
<clipPath id="clip3_1_292">
<rect width="24" height="19.7647" fill="white" transform="translate(88 2.11768)"/>
</clipPath>
<clipPath id="clip4_1_292">
<rect width="24" height="17.6842" fill="white" transform="translate(132 3.15796)"/>
</clipPath>
</defs>
</svg>
